# xmcd
#
# Track frame offsets:
#	150
#	11862
#	24055
#	35567
#	47798
#	59158
#	73143
#	83766
#	98009
#	108550
#	117605
#	130359
#	143967
#	155080
#	167172
#	180322
#
# Disc length: 2594 seconds
#
# Revision: 1
# Processed by: cddbd v1.5.2PL0 Copyright (c) Steve Scherf et al.
# Submitted via: audiograbber 1.83.01
#
DISCID=e50a2010
DTITLE=Ray Charles - Ray Charles CD 3
DYEAR=2006
DGENRE=Blues
TTITLE0=See see rider
TTITLE1=I've had my fun
TTITLE2=What have I done?
TTITLE3=Honey, honey
TTITLE4=She's on the ball
TTITLE5=Late in the evening blues
TTITLE6=Th' ego song
TTITLE7=Someday
TTITLE8=I wonder who's kissing her now
TTITLE9=All to myself
TTITLE10=Lonely boy
TTITLE11=Baby let me hold your hand
TTITLE12=I'll do anything but work
TTITLE13=I'm glad for your sake
TTITLE14=Baby won't you please come home
TTITLE15=Kissa me baby
EXTD=
EXTT0=
EXTT1=
EXTT2=
EXTT3=
EXTT4=
EXTT5=
EXTT6=
EXTT7=
EXTT8=
EXTT9=
EXTT10=
EXTT11=
EXTT12=
EXTT13=
EXTT14=
EXTT15=
PLAYORDER=
